<svg width="229" height="184" viewBox="0 0 229 184" fill="none" xmlns="http://www.w3.org/2000/svg">
<path d="M5.73217 99.8112C-1.47554 85.6316 -1.60351 68.7407 5.38738 54.3056V54.3056C11.0865 42.5378 21.025 33.4354 33.1108 28.9146L48.9939 22.9734C52.7715 21.5604 56.7584 20.8371 60.7698 20.8371L61.2359 20.8371C70.1853 20.8371 78.7846 17.1231 85.0503 10.5519V10.5519C98.0987 -3.13283 119.588 -3.16598 132.409 10.4789L134.842 13.0677C139.609 18.1411 145.717 21.7043 152.443 23.3363L155.569 24.0947C161.934 25.6392 167.901 28.5176 173.092 32.5472L204.888 57.2316C207.29 59.0963 209.457 61.2535 211.343 63.6559L223.526 79.1795C234.948 93.7319 227.475 115.59 209.569 120.007V120.007C196.658 123.192 188.319 136.047 190.548 149.33L190.783 150.734C193.474 166.77 181.691 181.705 165.701 182.525L149.191 183.372C138.44 183.924 129.458 175.317 129.352 164.362V164.362C129.245 153.277 120.059 144.625 109.189 145.372L96.2085 146.264C89.2644 146.741 82.6484 149.547 77.3946 154.241L58.4337 171.185C51.5418 177.344 42.2208 179.835 33.3166 177.897L31.869 177.582C14.5909 173.821 5.38347 154.651 13.0015 138.299V138.299C16.7062 130.347 16.5669 121.126 12.6251 113.371L5.73217 99.8112Z" fill="#EAFFF3"/>
<path d="M5.73217 99.8112C-1.47554 85.6316 -1.60351 68.7407 5.38738 54.3056V54.3056C11.0865 42.5378 21.025 33.4354 33.1108 28.9146L48.9939 22.9734C52.7715 21.5604 56.7584 20.8371 60.7698 20.8371L61.2359 20.8371C70.1853 20.8371 78.7846 17.1231 85.0503 10.5519V10.5519C98.0987 -3.13283 119.588 -3.16598 132.409 10.4789L134.842 13.0677C139.609 18.1411 145.717 21.7043 152.443 23.3363L155.569 24.0947C161.934 25.6392 167.901 28.5176 173.092 32.5472L204.888 57.2316C207.29 59.0963 209.457 61.2535 211.343 63.6559L223.526 79.1795C234.948 93.7319 227.475 115.59 209.569 120.007V120.007C196.658 123.192 188.319 136.047 190.548 149.33L190.783 150.734C193.474 166.77 181.691 181.705 165.701 182.525L149.191 183.372C138.44 183.924 129.458 175.317 129.352 164.362V164.362C129.245 153.277 120.059 144.625 109.189 145.372L96.2085 146.264C89.2644 146.741 82.6484 149.547 77.3946 154.241L58.4337 171.185C51.5418 177.344 42.2208 179.835 33.3166 177.897L31.869 177.582C14.5909 173.821 5.38347 154.651 13.0015 138.299V138.299C16.7062 130.347 16.5669 121.126 12.6251 113.371L5.73217 99.8112Z" fill="url(#paint0_linear_14_26)" fill-opacity="0.1"/>
<defs>
<linearGradient id="paint0_linear_14_26" x1="46.4416" y1="23.5133" x2="153.398" y2="199.813" gradientUnits="userSpaceOnUse">
<stop stop-color="#398495"/>
<stop offset="1" stop-color="#398495" stop-opacity="0"/>
</linearGradient>
</defs>
</svg>
